<svg xmlns="http://www.w3.org/2000/svg" width="512" height="512" viewBox="0 0 200 200">
  <defs>
    <clipPath id="i2clip">
      <rect width="200" height="200" rx="44"/>
    </clipPath>
    <linearGradient id="i2bg" x1="0" y1="0" x2="200" y2="200" gradientUnits="userSpaceOnUse">
      <stop offset="0%" stop-color="#070b16"/>
      <stop offset="100%" stop-color="#0d1220"/>
    </linearGradient>
  </defs>
  <rect width="200" height="200" rx="44" fill="url(#i2bg)"/>
  <g clip-path="url(#i2clip)">
    <rect x="14" y="26" width="76" height="148" rx="10" fill="#061e14"/>
    <rect x="14" y="26" width="76" height="22" rx="10" fill="#093222"/>
    <rect x="14" y="37" width="76" height="11" fill="#093222"/>
    <circle cx="27" cy="37" r="3.5" fill="#4ade80" opacity="0.7"/>
    <circle cx="37" cy="37" r="3.5" fill="#4ade80" opacity="0.4"/>
    <circle cx="47" cy="37" r="3.5" fill="#4ade80" opacity="0.25"/>
    <rect x="26" y="57" width="46" height="5" rx="2.5" fill="#4ade80" opacity="0.85"/>
    <rect x="26" y="68" width="32" height="5" rx="2.5" fill="#4ade80" opacity="0.55"/>
    <rect x="26" y="79" width="42" height="5" rx="2.5" fill="#4ade80" opacity="0.7"/>
    <rect x="26" y="90" width="26" height="5" rx="2.5" fill="#4ade80" opacity="0.45"/>
    <rect x="26" y="101" width="50" height="5" rx="2.5" fill="#4ade80" opacity="0.8"/>
    <rect x="26" y="112" width="36" height="5" rx="2.5" fill="#4ade80" opacity="0.6"/>
    <rect x="26" y="123" width="48" height="5" rx="2.5" fill="#4ade80" opacity="0.75"/>
    <rect x="26" y="134" width="30" height="5" rx="2.5" fill="#4ade80" opacity="0.5"/>
    <rect x="26" y="145" width="44" height="5" rx="2.5" fill="#4ade80" opacity="0.65"/>
    <rect x="26" y="156" width="38" height="5" rx="2.5" fill="#4ade80" opacity="0.4"/>
    <rect x="110" y="26" width="76" height="148" rx="10" fill="#061427"/>
    <rect x="110" y="26" width="76" height="22" rx="10" fill="#0b233e"/>
    <rect x="110" y="37" width="76" height="11" fill="#0b233e"/>
    <circle cx="123" cy="37" r="3.5" fill="#60a5fa" opacity="0.7"/>
    <circle cx="133" cy="37" r="3.5" fill="#60a5fa" opacity="0.4"/>
    <circle cx="143" cy="37" r="3.5" fill="#60a5fa" opacity="0.25"/>
    <rect x="122" y="57" width="46" height="5" rx="2.5" fill="#60a5fa" opacity="0.85"/>
    <rect x="122" y="68" width="32" height="5" rx="2.5" fill="#60a5fa" opacity="0.55"/>
    <rect x="122" y="79" width="42" height="5" rx="2.5" fill="#60a5fa" opacity="0.7"/>
    <rect x="122" y="90" width="26" height="5" rx="2.5" fill="#60a5fa" opacity="0.45"/>
    <rect x="122" y="101" width="50" height="5" rx="2.5" fill="#60a5fa" opacity="0.8"/>
    <rect x="122" y="112" width="36" height="5" rx="2.5" fill="#60a5fa" opacity="0.6"/>
    <rect x="122" y="123" width="48" height="5" rx="2.5" fill="#60a5fa" opacity="0.75"/>
    <rect x="122" y="134" width="30" height="5" rx="2.5" fill="#60a5fa" opacity="0.5"/>
    <rect x="122" y="145" width="44" height="5" rx="2.5" fill="#60a5fa" opacity="0.65"/>
    <rect x="122" y="156" width="38" height="5" rx="2.5" fill="#60a5fa" opacity="0.4"/>
    <line x1="90" y1="56" x2="110" y2="148" stroke="#f472b6" stroke-width="3" stroke-linecap="round"/>
    <line x1="90" y1="148" x2="110" y2="56" stroke="#818cf8" stroke-width="3" stroke-linecap="round"/>
    <circle cx="100" cy="102" r="5.5" fill="#e879f9" opacity="0.9"/>
    <circle cx="100" cy="102" r="2.5" fill="white" opacity="0.9"/>
  </g>
</svg>